<?xml version="1.0" standalone="no"?>
<!DOCTYPE svg PUBLIC "-//W3C//DTD SVG 20010904//EN"
 "http://www.w3.org/TR/2001/REC-SVG-20010904/DTD/svg10.dtd">
<svg version="1.0" xmlns="http://www.w3.org/2000/svg"
 width="1024.000000pt" height="1024.000000pt" viewBox="0 0 1024.000000 1024.000000"
 preserveAspectRatio="xMidYMid meet">
<metadata>
Created by potrace 1.14, written by Peter Selinger 2001-2017
</metadata>
<g transform="translate(0.000000,1024.000000) scale(0.100000,-0.100000)"
fill="#000000" stroke="none">
<path d="M0 7217 c0 -1703 3 -2306 11 -2314 13 -13 16 -104 5 -122 -4 -6 -3
-11 2 -11 11 0 10 -40 -1 -57 -5 -7 -4 -13 1 -13 5 0 8 -12 6 -27 -1 -15 2
-31 8 -34 16 -10 19 -42 5 -51 -7 -4 -7 -8 -2 -8 6 0 10 -24 9 -55 0 -32 4
-56 11 -59 7 -2 11 -25 10 -57 -1 -32 3 -60 11 -69 7 -8 12 -37 12 -65 0 -70
1 -77 12 -70 6 4 10 -17 10 -55 0 -38 4 -59 10 -55 6 4 10 -11 10 -39 0 -26 5
-46 12 -48 7 -3 11 -19 10 -40 -1 -21 3 -40 12 -47 8 -7 12 -25 10 -47 -2 -23
2 -37 11 -40 9 -4 12 -16 10 -35 -2 -16 3 -35 10 -43 8 -7 12 -22 11 -32 -2
-10 6 -33 17 -51 12 -21 15 -33 7 -33 -7 0 -5 -6 4 -16 9 -8 16 -29 16 -45 0
-18 5 -29 14 -29 10 0 13 -9 11 -27 -1 -15 3 -33 10 -40 7 -7 12 -24 11 -38
-2 -16 2 -25 10 -25 9 0 12 -10 10 -29 -2 -19 2 -32 11 -35 8 -3 13 -14 11
-23 -2 -11 2 -17 11 -15 10 2 12 -7 9 -33 -3 -24 0 -35 9 -35 14 0 16 -10 13
-49 -1 -14 2 -21 9 -17 7 4 11 -1 11 -12 0 -11 7 -25 15 -32 9 -7 14 -18 12
-24 -2 -6 3 -17 10 -25 8 -8 12 -22 10 -33 -3 -10 1 -21 8 -26 8 -4 14 -10 14
-15 0 -16 35 -87 44 -87 4 0 6 -4 3 -9 -3 -5 1 -14 9 -21 8 -7 13 -16 10 -20
-3 -5 0 -14 7 -22 7 -7 14 -20 16 -28 2 -8 8 -17 13 -18 5 -2 9 -12 9 -23 0
-10 5 -19 11 -19 5 0 8 -4 4 -10 -3 -5 3 -18 13 -28 10 -10 16 -24 14 -31 -2
-7 5 -19 17 -27 12 -8 21 -23 21 -33 0 -11 7 -22 16 -25 9 -3 14 -13 11 -20
-3 -8 1 -17 9 -20 9 -3 13 -10 9 -15 -3 -6 8 -23 24 -40 18 -18 25 -33 20 -40
-5 -6 -6 -9 -3 -7 9 7 33 -17 27 -27 -6 -10 33 -58 41 -50 3 3 6 -5 6 -18 0
-14 9 -31 20 -39 11 -8 20 -20 20 -28 0 -7 11 -24 25 -38 14 -14 23 -29 20
-34 -3 -5 6 -17 20 -26 13 -9 23 -20 20 -25 -3 -4 8 -21 24 -38 16 -16 26 -33
23 -36 -4 -4 2 -13 12 -21 11 -8 16 -14 12 -14 -5 0 3 -10 18 -21 15 -12 25
-28 22 -35 -3 -8 1 -14 9 -14 8 0 15 -6 15 -13 0 -7 9 -18 20 -25 11 -7 20
-18 20 -26 0 -7 25 -38 55 -68 30 -31 55 -61 57 -69 2 -7 38 -49 81 -92 43
-43 76 -81 73 -84 -3 -3 59 -70 138 -149 79 -78 142 -145 138 -148 -3 -3 0 -6
7 -6 7 0 19 -7 27 -15 8 -8 22 -11 32 -8 9 3 14 3 10 -1 -8 -9 133 -152 146
-148 4 1 33 -22 63 -53 29 -31 63 -57 73 -58 11 -1 20 -5 20 -10 0 -11 52 -56
66 -57 6 0 27 -17 47 -37 21 -20 37 -32 37 -28 0 5 13 -4 29 -19 16 -15 31
-26 34 -24 3 1 17 -7 31 -19 14 -13 30 -22 35 -20 5 1 20 -10 34 -25 14 -15
28 -24 32 -20 4 4 13 -2 21 -12 8 -11 14 -17 14 -13 0 4 9 -2 20 -13 22 -22
43 -19 34 5 -3 8 10 29 30 50 20 20 36 42 36 50 0 8 9 20 19 27 11 8 21 22 23
33 1 11 13 28 25 38 13 10 22 21 20 25 -3 12 29 52 36 45 4 -3 7 1 7 9 0 9 7
19 16 22 8 3 12 11 9 16 -4 6 5 20 19 31 15 11 24 25 21 30 -4 5 5 20 19 33
14 13 26 28 26 34 0 6 15 27 33 47 17 19 32 39 32 43 0 4 10 18 23 32 12 13
22 32 22 42 0 11 5 16 10 13 6 -3 10 1 10 9 0 8 9 18 20 21 11 3 20 14 20 24
0 9 8 26 18 37 10 10 27 34 37 52 11 17 23 32 27 32 4 0 8 7 8 16 0 9 14 29
31 45 17 16 32 34 33 41 3 20 39 58 49 51 5 -3 4 4 -2 16 -7 11 -8 21 -4 21
15 0 63 47 63 62 0 8 11 25 25 38 14 13 25 28 25 33 0 6 -3 7 -6 4 -4 -4 -17
5 -30 20 -13 15 -26 24 -29 21 -4 -4 -20 7 -37 23 -17 16 -34 27 -38 24 -4 -3
-16 6 -25 19 -11 14 -26 23 -37 21 -10 -2 -18 1 -18 6 0 17 -27 39 -48 39 -10
0 -24 11 -32 24 -7 14 -18 22 -26 19 -8 -3 -33 16 -61 46 -25 27 -50 48 -56
44 -5 -3 -28 16 -52 41 -23 26 -47 46 -52 44 -5 -2 -39 27 -75 64 -36 36 -69
64 -72 61 -3 -4 -6 -1 -6 5 0 15 -227 242 -234 234 -3 -3 -6 2 -6 11 0 9 -4
17 -10 17 -5 0 -10 7 -10 15 0 8 -25 39 -55 70 -30 30 -55 60 -55 66 0 7 -14
25 -31 42 -17 16 -32 34 -33 41 -1 10 -24 40 -53 71 -7 8 -13 21 -13 30 0 9
-4 13 -10 10 -5 -3 -10 1 -10 9 0 9 -7 16 -16 16 -11 0 -14 5 -10 16 3 9 -5
25 -21 40 -14 13 -23 27 -20 31 4 3 -8 19 -26 34 -18 17 -26 29 -18 29 10 0 8
7 -7 23 -12 13 -20 26 -17 29 4 3 -6 15 -20 26 -15 12 -24 26 -20 32 3 5 -1
13 -10 16 -9 4 -14 12 -11 20 3 7 -2 18 -10 24 -8 7 -14 20 -14 30 0 10 -7 23
-15 30 -8 7 -12 16 -9 21 3 5 1 9 -4 9 -6 0 -13 11 -16 25 -4 14 -11 25 -16
25 -5 0 -7 7 -4 15 4 9 -1 18 -11 21 -9 4 -14 12 -11 20 3 7 -2 18 -10 25 -8
7 -13 18 -10 25 3 7 -2 15 -10 18 -8 3 -14 14 -14 25 0 10 -7 21 -15 25 -8 3
-12 12 -9 20 3 8 -1 28 -10 44 -8 16 -12 32 -9 36 4 3 -1 6 -11 6 -14 0 -16 6
-12 30 2 16 0 30 -5 30 -5 0 -11 11 -15 25 -3 14 -10 25 -15 25 -5 0 -9 14 -9
30 0 17 -4 30 -10 30 -5 0 -10 14 -10 31 0 17 -7 37 -15 46 -9 8 -13 23 -10
33 3 10 0 20 -9 23 -9 4 -13 17 -11 39 2 19 -3 40 -12 50 -8 9 -12 22 -8 28 4
6 -1 20 -11 31 -9 10 -14 19 -10 19 4 0 2 8 -3 18 -6 11 -6 24 0 35 8 13 6 17
-6 17 -8 0 -14 3 -14 8 1 4 0 12 -1 17 -1 6 -1 26 0 46 1 25 -4 38 -15 43 -12
4 -14 10 -7 23 6 9 6 29 2 45 -5 15 -6 28 -2 28 4 0 0 4 -8 10 -10 6 -14 29
-15 80 0 39 -5 74 -10 78 -6 4 -10 45 -10 92 0 47 -4 91 -10 99 -6 8 -10 88
-11 182 l-1 167 1584 0 c872 0 1587 3 1591 6 3 4 6 969 6 2146 l1 2140 -2277
0 -2278 0 0 -2303z"/>
<path d="M7756 9485 c-11 -8 -21 -22 -22 -31 -1 -8 -12 -23 -23 -33 -12 -10
-21 -24 -21 -31 0 -7 -15 -28 -33 -45 -19 -18 -33 -39 -31 -48 1 -8 -9 -21
-22 -28 -14 -7 -24 -21 -24 -35 0 -14 -8 -25 -19 -29 -21 -6 -37 -35 -19 -35
6 0 -8 -17 -31 -39 -22 -21 -41 -46 -41 -54 0 -9 -9 -21 -20 -27 -11 -6 -20
-17 -20 -25 0 -8 -16 -31 -35 -50 -19 -20 -34 -39 -34 -43 3 -18 -2 -35 -7
-29 -11 10 -36 -22 -30 -38 3 -8 2 -15 -3 -15 -15 0 -48 -35 -44 -47 2 -6 -12
-26 -31 -44 -20 -18 -36 -40 -36 -50 0 -10 -9 -23 -20 -29 -11 -6 -20 -18 -20
-26 0 -8 -10 -25 -22 -37 -13 -12 -24 -29 -26 -37 -2 -8 -16 -27 -33 -41 -16
-15 -29 -33 -29 -41 0 -8 -11 -24 -25 -36 -15 -13 -22 -28 -19 -37 4 -8 1 -15
-6 -15 -13 0 -39 -29 -40 -43 0 -5 5 -5 10 -2 6 3 10 0 10 -9 0 -8 7 -13 18
-11 20 3 52 -22 52 -42 0 -10 5 -11 19 -4 15 8 20 6 29 -14 7 -14 16 -26 22
-26 5 -1 15 -2 20 -3 6 0 14 -6 18 -12 4 -6 21 -18 37 -27 40 -22 75 -53 75
-66 0 -6 6 -8 13 -5 7 2 29 -10 48 -28 19 -18 37 -32 40 -31 4 1 28 -19 55
-45 27 -25 55 -47 62 -48 21 -4 42 -25 35 -38 -3 -6 -3 -8 2 -4 4 4 92 -78
195 -182 104 -103 191 -186 194 -182 3 3 6 -2 6 -11 0 -9 5 -17 10 -17 6 0 10
-7 10 -15 0 -8 26 -41 58 -73 32 -32 57 -63 55 -69 -2 -6 12 -24 32 -41 19
-17 35 -40 35 -51 0 -11 9 -22 20 -26 13 -4 20 -15 20 -31 0 -14 4 -23 8 -20
5 3 16 -8 26 -25 9 -16 14 -29 10 -29 -4 0 6 -11 22 -25 15 -13 25 -27 22 -30
-4 -4 7 -20 23 -37 16 -17 27 -34 24 -38 -3 -4 7 -16 20 -26 16 -12 23 -25 19
-36 -4 -12 0 -18 11 -18 9 0 14 -4 11 -9 -3 -4 1 -17 9 -27 8 -10 15 -27 15
-36 0 -10 5 -18 10 -18 6 0 10 -9 10 -20 0 -11 5 -20 10 -20 6 0 10 -7 10 -15
0 -8 10 -24 23 -37 12 -13 22 -30 21 -38 0 -8 6 -25 13 -38 8 -12 11 -27 8
-32 -6 -9 8 -14 28 -11 5 1 6 -3 2 -9 -9 -14 17 -80 31 -80 7 0 10 -8 7 -20
-3 -12 1 -22 10 -26 9 -3 14 -14 12 -25 -2 -10 2 -25 9 -32 7 -7 12 -20 10
-30 -1 -9 4 -17 12 -17 10 0 13 -8 10 -25 -3 -14 2 -31 10 -39 8 -8 14 -26 14
-39 0 -14 6 -30 14 -36 7 -6 11 -22 8 -36 -3 -18 0 -25 10 -25 11 0 14 -7 10
-26 -3 -18 0 -30 11 -35 10 -6 14 -18 11 -34 -3 -16 1 -27 9 -31 8 -3 13 -19
12 -41 0 -20 5 -41 12 -48 6 -7 9 -15 6 -19 -4 -3 -1 -6 5 -6 7 0 8 -10 2 -29
-6 -21 -5 -31 5 -34 13 -6 27 -67 14 -67 -11 0 2 -41 15 -46 7 -3 11 -23 10
-51 -1 -26 3 -52 10 -59 7 -7 12 -33 11 -61 -2 -51 3 -76 14 -69 4 3 6 -41 6
-97 -1 -65 3 -107 11 -117 8 -10 11 -65 10 -180 l-1 -165 -208 -2 c-114 0
-214 -4 -221 -6 -8 -3 -16 -3 -19 0 -5 5 -439 7 -462 3 -6 -1 -14 -2 -20 -1
-14 3 -448 3 -460 1 -6 -1 -14 -2 -20 -1 -14 3 -448 3 -460 1 -6 -1 -14 -2
-20 -1 -14 3 -448 3 -460 1 -6 -1 -14 -2 -20 -1 -14 3 -448 3 -460 1 -6 -1
-14 -2 -20 -1 -21 4 -316 1 -323 -3 -4 -2 -7 -966 -6 -2143 l0 -2138 2277 -3
2277 -2 0 2309 c0 1654 -3 2310 -11 2313 -7 2 -11 47 -11 126 0 81 -4 127 -12
135 -8 7 -11 40 -10 86 1 49 -3 79 -11 87 -8 8 -12 35 -10 74 2 40 -2 66 -11
74 -7 8 -12 32 -10 59 1 31 -2 48 -11 51 -8 4 -13 24 -13 60 0 36 -4 56 -14
59 -10 4 -11 17 -6 50 5 38 4 46 -10 50 -14 3 -16 13 -13 46 3 31 1 41 -11 41
-10 0 -13 8 -10 24 2 14 -2 31 -10 38 -7 8 -12 31 -11 51 1 26 -3 37 -12 37
-8 0 -11 5 -8 10 3 6 1 10 -6 10 -8 0 -9 3 0 14 8 10 7 19 -8 38 -13 15 -16
29 -11 38 5 8 3 22 -6 34 -8 11 -14 28 -14 37 0 9 -7 29 -14 45 -8 15 -13 31
-10 36 3 4 -2 15 -10 24 -9 9 -14 20 -10 25 3 5 -1 12 -9 15 -8 3 -13 15 -13
27 1 12 -4 30 -12 39 -8 10 -12 24 -9 32 4 9 0 22 -8 30 -8 8 -15 21 -15 29 0
9 -5 17 -12 19 -6 2 -11 19 -10 36 0 18 -4 30 -9 27 -5 -4 -9 3 -9 13 0 11 -7
25 -15 32 -10 8 -13 23 -10 41 4 21 1 29 -10 29 -8 0 -15 9 -15 20 0 11 -7 23
-16 27 -12 4 -13 7 -3 14 11 6 10 9 -4 15 -9 3 -17 15 -17 25 0 11 -6 22 -14
25 -8 3 -12 12 -9 21 3 8 0 19 -8 24 -8 4 -15 13 -15 19 -1 5 -2 15 -3 21 0 5
-6 7 -13 3 -8 -5 -9 -2 -5 9 3 9 0 23 -8 31 -8 8 -15 24 -15 35 0 12 -4 21
-10 21 -5 0 -10 7 -10 15 0 8 -4 15 -10 15 -5 0 -10 11 -10 25 0 16 -6 25 -16
25 -8 0 -12 4 -9 10 3 5 -2 21 -11 35 -9 14 -12 25 -8 25 5 0 -3 10 -17 23
-14 12 -29 34 -32 48 -4 14 -20 41 -36 59 -16 19 -28 42 -26 51 3 13 -1 16
-12 12 -12 -5 -15 -2 -11 9 4 9 -4 26 -18 41 -13 14 -24 32 -24 39 0 7 -11 22
-25 32 -13 10 -22 23 -19 28 3 5 -6 20 -21 34 -15 14 -25 30 -22 37 3 7 -7 22
-23 32 -18 12 -26 24 -22 37 3 12 -1 18 -12 18 -10 0 -14 5 -11 10 3 6 1 10
-5 10 -12 0 -41 25 -40 35 1 26 -3 35 -20 40 -11 4 -18 10 -15 15 3 4 -2 10
-10 14 -8 3 -15 13 -15 21 0 9 -20 36 -45 59 -25 24 -45 49 -45 56 0 6 -29 40
-65 75 -36 34 -65 68 -65 75 0 7 -72 84 -160 172 -88 87 -160 163 -160 168 0
6 -5 10 -10 10 -6 0 -39 29 -75 65 -35 36 -69 65 -75 65 -6 0 -34 24 -63 53
-28 28 -56 52 -63 52 -6 0 -25 15 -43 33 -18 17 -37 32 -42 32 -5 0 -8 6 -7
13 2 7 -6 12 -19 11 -13 -1 -23 3 -23 9 0 11 -17 25 -70 61 -19 13 -45 34 -58
45 -12 12 -26 20 -31 17 -5 -3 -16 5 -25 19 -9 14 -24 25 -34 25 -9 0 -26 11
-36 25 -10 13 -22 22 -27 19 -5 -3 -20 7 -35 21 -14 14 -30 23 -35 20 -5 -4
-12 1 -15 9 -8 20 -23 20 -48 1z"/>
</g>
</svg>
